# xmcd
#
# Track frame offsets: 
#        150
#        21642
#        33397
#        43750
#        60615
#        74572
#        81245
#        94907
#        106100
#        120290
#        137012
#        161572
#
# Disc length: 2324 seconds
#
# Revision: 3
# Processed by: cddbd v1.4PL0 Copyright (c) Steve Scherf et al.
# Submitted via: ExactAudioCopy v0.95a4
#
DISCID=a209120c
DTITLE=John Denver - Back Home Again
DYEAR=1900
DGENRE=Country
TTITLE0=Back Home Again
TTITLE1=On The Road
TTITLE2=Grandma's Feather Bed
TTITLE3=Matthew
TTITLE4=Thank God I'm  a Country Boy
TTITLE5=The Music is You
TTITLE6=Annies Song
TTITLE7=It's Up To You
TTITLE8=Cool an Green an Shady
TTITLE9=Eclipse
TTITLE10=Sweet Surrender
TTITLE11=This Old Guitar
EXTD=
EXTT0=
EXTT1=
EXTT2=
EXTT3=
EXTT4=
EXTT5=
EXTT6=
EXTT7=
EXTT8=
EXTT9=
EXTT10=
EXTT11=
PLAYORDER=
